<svg width="162" height="65" viewBox="0 0 162 65" fill="none" xmlns="http://www.w3.org/2000/svg">
<path d="M26.3055 43.576L40.0617 40.0118" stroke="black" stroke-width="3" stroke-miterlimit="10" stroke-linecap="round"/>
<path d="M22.3795 34.489L34.0102 28.6086" stroke="black" stroke-width="3" stroke-miterlimit="10" stroke-linecap="round"/>
<path d="M23.0577 38.7422L38.1507 34.489" stroke="black" stroke-width="3" stroke-miterlimit="10" stroke-linecap="round"/>
<path d="M24.7867 5.551C25.9007 5.551 26.8038 4.64788 26.8038 3.53383C26.8038 2.41978 25.9007 1.51666 24.7867 1.51666C23.6726 1.51666 22.7695 2.41978 22.7695 3.53383C22.7695 4.64788 23.6726 5.551 24.7867 5.551Z" fill="#3DA751"/>
<path d="M23.3458 12.181C24.619 12.181 25.6512 11.1488 25.6512 9.87565C25.6512 8.60245 24.619 7.57031 23.3458 7.57031C22.0726 7.57031 21.0405 8.60245 21.0405 9.87565C21.0405 11.1488 22.0726 12.181 23.3458 12.181Z" fill="#3DA751"/>
<path d="M23.3458 9.87567L39.7735 13.0455" stroke="#3DA751" stroke-width="3" stroke-miterlimit="10" stroke-linecap="round"/>
<path d="M24.4985 19.6733C25.9308 19.6733 27.092 18.5122 27.092 17.0798C27.092 15.6475 25.9308 14.4863 24.4985 14.4863C23.0661 14.4863 21.905 15.6475 21.905 17.0798C21.905 18.5122 23.0661 19.6733 24.4985 19.6733Z" fill="#3DA751"/>
<path d="M29.6855 25.727C31.4362 25.727 32.8553 24.3078 32.8553 22.5572C32.8553 20.8065 31.4362 19.3873 29.6855 19.3873C27.9349 19.3873 26.5157 20.8065 26.5157 22.5572C26.5157 24.3078 27.9349 25.727 29.6855 25.727Z" fill="#3DA751"/>
<path d="M36.1703 30.628C37.6829 30.628 38.909 29.4019 38.909 27.8894C38.909 26.3768 37.6829 25.1507 36.1703 25.1507C34.6578 25.1507 33.4317 26.3768 33.4317 27.8894C33.4317 29.4019 34.6578 30.628 36.1703 30.628Z" fill="#3DA751"/>
<path d="M40.3498 36.1032C41.623 36.1032 42.6552 35.071 42.6552 33.7978C42.6552 32.5246 41.623 31.4925 40.3498 31.4925C39.0766 31.4925 38.0445 32.5246 38.0445 33.7978C38.0445 35.071 39.0766 36.1032 40.3498 36.1032Z" fill="#3DA751"/>
<path d="M41.3595 41.5805C42.3946 41.5805 43.2337 40.7414 43.2337 39.7063C43.2337 38.6712 42.3946 37.8322 41.3595 37.8322C40.3244 37.8322 39.4853 38.6712 39.4853 39.7063C39.4853 40.7414 40.3244 41.5805 41.3595 41.5805Z" fill="#3DA751"/>
<path d="M38.6208 45.3245C39.4166 45.3245 40.0617 44.6794 40.0617 43.8837C40.0617 43.0879 39.4166 42.4428 38.6208 42.4428C37.8251 42.4428 37.18 43.0879 37.18 43.8837C37.18 44.6794 37.8251 45.3245 38.6208 45.3245Z" fill="#3DA751"/>
<path d="M34.2983 47.3438C35.0941 47.3438 35.7392 46.6987 35.7392 45.903C35.7392 45.1072 35.0941 44.4622 34.2983 44.4622C33.5026 44.4622 32.8575 45.1072 32.8575 45.903C32.8575 46.6987 33.5026 47.3438 34.2983 47.3438Z" fill="#3DA751"/>
<path d="M29.6855 51.09C30.3221 51.09 30.8382 50.5739 30.8382 49.9373C30.8382 49.3007 30.3221 48.7847 29.6855 48.7847C29.0489 48.7847 28.5328 49.3007 28.5328 49.9373C28.5328 50.5739 29.0489 51.09 29.6855 51.09Z" fill="#3DA751"/>
<path d="M26.6608 55.1265C27.6959 55.1265 28.535 54.2874 28.535 53.2523C28.535 52.2173 27.6959 51.3782 26.6608 51.3782C25.6258 51.3782 24.7867 52.2173 24.7867 53.2523C24.7867 54.2874 25.6258 55.1265 26.6608 55.1265Z" fill="#3DA751"/>
<path d="M24.2103 58.2942C24.8469 58.2942 25.363 57.7781 25.363 57.1415C25.363 56.5049 24.8469 55.9888 24.2103 55.9888C23.5737 55.9888 23.0577 56.5049 23.0577 57.1415C23.0577 57.7781 23.5737 58.2942 24.2103 58.2942Z" fill="#3DA751"/>
<path d="M24.0652 63.4833C25.1002 63.4833 25.9393 62.6443 25.9393 61.6092C25.9393 60.5741 25.1002 59.735 24.0652 59.735C23.0301 59.735 22.191 60.5741 22.191 61.6092C22.191 62.6443 23.0301 63.4833 24.0652 63.4833Z" fill="#3DA751"/>
<path d="M26.6608 53.2523L37.0305 55.1243" stroke="#3DA751" stroke-width="3" stroke-miterlimit="10" stroke-linecap="round"/>
<path d="M24.2103 57.1415L38.3327 59.449" stroke="#3DA751" stroke-width="3" stroke-miterlimit="10" stroke-linecap="round"/>
<path d="M24.7867 17.0798L34.8747 17.9443" stroke="#3DA751" stroke-width="3" stroke-miterlimit="10" stroke-linecap="round"/>
<path d="M41.7907 8.43481C41.7907 8.43481 43.2315 12.7681 32.8575 19.3851" stroke="black" stroke-width="3" stroke-miterlimit="10" stroke-linecap="round"/>
<path d="M26.2318 25.1507C26.2318 25.1507 15.5632 37.0804 29.6833 46.2475C29.6833 46.2475 40.3477 53.1072 38.9068 61.6092" stroke="black" stroke-width="3" stroke-miterlimit="10" stroke-linecap="round"/>
<path d="M58.772 24.781H62.347V26.409H58.772V24.781ZM58.926 27.817H62.952V29.5H56.77V21.8H62.809V23.483H58.926V27.817ZM66.4182 29.5L63.1292 21.8H65.4832L68.2552 28.466H66.8692L69.7072 21.8H71.8632L68.5632 29.5H66.4182ZM76.1003 29.654C75.4843 29.654 74.9159 29.555 74.3953 29.357C73.8746 29.159 73.4199 28.8803 73.0313 28.521C72.6499 28.1543 72.3529 27.729 72.1403 27.245C71.9276 26.761 71.8213 26.2293 71.8213 25.65C71.8213 25.0707 71.9276 24.539 72.1403 24.055C72.3529 23.571 72.6499 23.1493 73.0313 22.79C73.4199 22.4233 73.8746 22.141 74.3953 21.943C74.9159 21.745 75.4843 21.646 76.1003 21.646C76.7236 21.646 77.2919 21.745 77.8053 21.943C78.3259 22.141 78.7769 22.4233 79.1583 22.79C79.5396 23.1493 79.8366 23.571 80.0493 24.055C80.2693 24.539 80.3793 25.0707 80.3793 25.65C80.3793 26.2293 80.2693 26.7647 80.0493 27.256C79.8366 27.74 79.5396 28.1617 79.1583 28.521C78.7769 28.8803 78.3259 29.159 77.8053 29.357C77.2919 29.555 76.7236 29.654 76.1003 29.654ZM76.1003 27.85C76.3936 27.85 76.6649 27.7987 76.9143 27.696C77.1709 27.5933 77.3909 27.4467 77.5743 27.256C77.7649 27.058 77.9116 26.8233 78.0143 26.552C78.1243 26.2807 78.1793 25.98 78.1793 25.65C78.1793 25.3127 78.1243 25.012 78.0143 24.748C77.9116 24.4767 77.7649 24.2457 77.5743 24.055C77.3909 23.857 77.1709 23.7067 76.9143 23.604C76.6649 23.5013 76.3936 23.45 76.1003 23.45C75.8069 23.45 75.5319 23.5013 75.2753 23.604C75.0259 23.7067 74.8059 23.857 74.6153 24.055C74.4319 24.2457 74.2853 24.4767 74.1753 24.748C74.0726 25.012 74.0213 25.3127 74.0213 25.65C74.0213 25.98 74.0726 26.2807 74.1753 26.552C74.2853 26.8233 74.4319 27.058 74.6153 27.256C74.8059 27.4467 75.0259 27.5933 75.2753 27.696C75.5319 27.7987 75.8069 27.85 76.1003 27.85ZM81.52 29.5V21.8H83.698V27.773H87.372V29.5H81.52ZM91.7117 29.654C90.575 29.654 89.6877 29.3423 89.0497 28.719C88.4117 28.0957 88.0927 27.212 88.0927 26.068V21.8H90.2707V26.002C90.2707 26.662 90.399 27.135 90.6557 27.421C90.9197 27.707 91.279 27.85 91.7337 27.85C92.1883 27.85 92.544 27.707 92.8007 27.421C93.0573 27.135 93.1857 26.662 93.1857 26.002V21.8H95.3307V26.068C95.3307 27.212 95.0117 28.0957 94.3737 28.719C93.7357 29.3423 92.8483 29.654 91.7117 29.654ZM98.327 29.5V23.527H95.962V21.8H102.859V23.527H100.505V29.5H98.327ZM103.67 29.5V21.8H105.848V29.5H103.67ZM111.281 29.654C110.665 29.654 110.097 29.555 109.576 29.357C109.055 29.159 108.601 28.8803 108.212 28.521C107.831 28.1543 107.534 27.729 107.321 27.245C107.108 26.761 107.002 26.2293 107.002 25.65C107.002 25.0707 107.108 24.539 107.321 24.055C107.534 23.571 107.831 23.1493 108.212 22.79C108.601 22.4233 109.055 22.141 109.576 21.943C110.097 21.745 110.665 21.646 111.281 21.646C111.904 21.646 112.473 21.745 112.986 21.943C113.507 22.141 113.958 22.4233 114.339 22.79C114.72 23.1493 115.017 23.571 115.23 24.055C115.45 24.539 115.56 25.0707 115.56 25.65C115.56 26.2293 115.45 26.7647 115.23 27.256C115.017 27.74 114.72 28.1617 114.339 28.521C113.958 28.8803 113.507 29.159 112.986 29.357C112.473 29.555 111.904 29.654 111.281 29.654ZM111.281 27.85C111.574 27.85 111.846 27.7987 112.095 27.696C112.352 27.5933 112.572 27.4467 112.755 27.256C112.946 27.058 113.092 26.8233 113.195 26.552C113.305 26.2807 113.36 25.98 113.36 25.65C113.36 25.3127 113.305 25.012 113.195 24.748C113.092 24.4767 112.946 24.2457 112.755 24.055C112.572 23.857 112.352 23.7067 112.095 23.604C111.846 23.5013 111.574 23.45 111.281 23.45C110.988 23.45 110.713 23.5013 110.456 23.604C110.207 23.7067 109.987 23.857 109.796 24.055C109.613 24.2457 109.466 24.4767 109.356 24.748C109.253 25.012 109.202 25.3127 109.202 25.65C109.202 25.98 109.253 26.2807 109.356 26.552C109.466 26.8233 109.613 27.058 109.796 27.256C109.987 27.4467 110.207 27.5933 110.456 27.696C110.713 27.7987 110.988 27.85 111.281 27.85ZM116.701 29.5V21.8H118.494L122.74 26.926H121.893V21.8H124.027V29.5H122.234L117.988 24.374H118.835V29.5H116.701ZM126.344 25.914C125.992 25.914 125.695 25.7967 125.453 25.562C125.211 25.3273 125.09 25.0303 125.09 24.671C125.09 24.297 125.211 24 125.453 23.78C125.695 23.5527 125.992 23.439 126.344 23.439C126.696 23.439 126.993 23.5527 127.235 23.78C127.477 24 127.598 24.297 127.598 24.671C127.598 25.0303 127.477 25.3273 127.235 25.562C126.993 25.7967 126.696 25.914 126.344 25.914ZM126.344 29.599C125.992 29.599 125.695 29.4817 125.453 29.247C125.211 29.0123 125.09 28.7153 125.09 28.356C125.09 27.982 125.211 27.685 125.453 27.465C125.695 27.2377 125.992 27.124 126.344 27.124C126.696 27.124 126.993 27.2377 127.235 27.465C127.477 27.685 127.598 27.982 127.598 28.356C127.598 28.7153 127.477 29.0123 127.235 29.247C126.993 29.4817 126.696 29.599 126.344 29.599ZM58.409 42.5V36.527H56.044V34.8H62.941V36.527H60.587V42.5H58.409ZM68.9004 34.8H71.0784V42.5H68.9004V34.8ZM65.9304 42.5H63.7524V34.8H65.9304V42.5ZM69.0544 39.497H65.7764V37.693H69.0544V39.497ZM74.6167 37.781H78.1917V39.409H74.6167V37.781ZM74.7707 40.817H78.7967V42.5H72.6147V34.8H78.6537V36.483H74.7707V40.817ZM83.2065 42.5V34.8H86.7265C87.4305 34.8 88.0355 34.9137 88.5415 35.141C89.0549 35.3683 89.4509 35.6983 89.7295 36.131C90.0082 36.5563 90.1475 37.0623 90.1475 37.649C90.1475 38.2283 90.0082 38.7307 89.7295 39.156C89.4509 39.5813 89.0549 39.9113 88.5415 40.146C88.0355 40.3733 87.4305 40.487 86.7265 40.487H84.4165L85.3845 39.541V42.5H83.2065ZM85.3845 39.772L84.4165 38.771H86.5945C87.0492 38.771 87.3865 38.672 87.6065 38.474C87.8339 38.276 87.9475 38.001 87.9475 37.649C87.9475 37.2897 87.8339 37.011 87.6065 36.813C87.3865 36.615 87.0492 36.516 86.5945 36.516H84.4165L85.3845 35.515V39.772ZM89.8987 42.5L93.2977 34.8H95.4427L98.8527 42.5H96.5867L93.9247 35.867H94.7827L92.1207 42.5H89.8987ZM91.7577 41.004L92.3187 39.398H96.0807L96.6417 41.004H91.7577ZM100.722 42.5V36.527H98.3575V34.8H105.254V36.527H102.9V42.5H100.722ZM111.214 34.8H113.392V42.5H111.214V34.8ZM108.244 42.5H106.066V34.8H108.244V42.5ZM111.368 39.497H108.09V37.693H111.368V39.497ZM122.012 42.654C121.396 42.654 120.828 42.555 120.307 42.357C119.787 42.159 119.332 41.8803 118.943 41.521C118.562 41.1543 118.265 40.729 118.052 40.245C117.84 39.761 117.733 39.2293 117.733 38.65C117.733 38.0707 117.84 37.539 118.052 37.055C118.265 36.571 118.562 36.1493 118.943 35.79C119.332 35.4233 119.787 35.141 120.307 34.943C120.828 34.745 121.396 34.646 122.012 34.646C122.636 34.646 123.204 34.745 123.717 34.943C124.238 35.141 124.689 35.4233 125.07 35.79C125.452 36.1493 125.749 36.571 125.961 37.055C126.181 37.539 126.291 38.0707 126.291 38.65C126.291 39.2293 126.181 39.7647 125.961 40.256C125.749 40.74 125.452 41.1617 125.07 41.521C124.689 41.8803 124.238 42.159 123.717 42.357C123.204 42.555 122.636 42.654 122.012 42.654ZM122.012 40.85C122.306 40.85 122.577 40.7987 122.826 40.696C123.083 40.5933 123.303 40.4467 123.486 40.256C123.677 40.058 123.824 39.8233 123.926 39.552C124.036 39.2807 124.091 38.98 124.091 38.65C124.091 38.3127 124.036 38.012 123.926 37.748C123.824 37.4767 123.677 37.2457 123.486 37.055C123.303 36.857 123.083 36.7067 122.826 36.604C122.577 36.5013 122.306 36.45 122.012 36.45C121.719 36.45 121.444 36.5013 121.187 36.604C120.938 36.7067 120.718 36.857 120.527 37.055C120.344 37.2457 120.197 37.4767 120.087 37.748C119.985 38.012 119.933 38.3127 119.933 38.65C119.933 38.98 119.985 39.2807 120.087 39.552C120.197 39.8233 120.344 40.058 120.527 40.256C120.718 40.4467 120.938 40.5933 121.187 40.696C121.444 40.7987 121.719 40.85 122.012 40.85ZM129.456 38.177H133.009V39.86H129.456V38.177ZM129.61 42.5H127.432V34.8H133.471V36.483H129.61V42.5ZM137.691 42.5V34.8H139.869V40.773H143.543V42.5H137.691ZM144.405 42.5V34.8H146.583V42.5H144.405ZM150.156 38.177H153.709V39.86H150.156V38.177ZM150.31 42.5H148.132V34.8H154.171V36.483H150.31V42.5ZM157.192 37.781H160.767V39.409H157.192V37.781ZM157.346 40.817H161.372V42.5H155.19V34.8H161.229V36.483H157.346V40.817Z" fill="white"/>
</svg>
