<svg width="42" height="43" viewBox="0 0 42 43" fill="none" xmlns="http://www.w3.org/2000/svg">
<path d="M37.8853 35.2813C35.3866 30.9615 31.5361 27.864 27.0424 26.3956C29.2652 25.0724 30.9921 23.0561 31.9581 20.6564C32.924 18.2567 33.0755 15.6062 32.3893 13.1121C31.7031 10.6179 30.2171 8.41798 28.1596 6.85009C26.1021 5.28219 23.5868 4.43304 21 4.43304C18.4132 4.43304 15.8979 5.28219 13.8403 6.85009C11.7828 8.41798 10.2969 10.6179 9.61067 13.1121C8.92447 15.6062 9.07597 18.2567 10.0419 20.6564C11.0078 23.0561 12.7348 25.0724 14.9576 26.3956C10.4639 27.8624 6.61335 30.9599 4.11467 35.2813C4.02304 35.4307 3.96227 35.5969 3.93593 35.7702C3.90959 35.9435 3.91822 36.1203 3.96132 36.2902C4.00441 36.46 4.0811 36.6196 4.18685 36.7594C4.2926 36.8991 4.42527 37.0163 4.57704 37.104C4.72881 37.1916 4.8966 37.248 5.07051 37.2698C5.24443 37.2915 5.42094 37.2783 5.58963 37.2307C5.75832 37.1831 5.91579 37.1023 6.05272 36.9929C6.18966 36.8835 6.3033 36.7478 6.38694 36.5938C9.47788 31.2519 14.9412 28.0625 21 28.0625C27.0588 28.0625 32.5221 31.2519 35.613 36.5938C35.6967 36.7478 35.8103 36.8835 35.9473 36.9929C36.0842 37.1023 36.2416 37.1831 36.4103 37.2307C36.579 37.2783 36.7555 37.2915 36.9295 37.2698C37.1034 37.248 37.2712 37.1916 37.4229 37.104C37.5747 37.0163 37.7074 36.8991 37.8131 36.7594C37.9189 36.6196 37.9956 36.46 38.0387 36.2902C38.0818 36.1203 38.0904 35.9435 38.064 35.7702C38.0377 35.5969 37.9769 35.4307 37.8853 35.2813ZM11.8125 16.25C11.8125 14.4329 12.3513 12.6566 13.3609 11.1457C14.3704 9.63483 15.8053 8.45724 17.4841 7.76186C19.1629 7.06648 21.0102 6.88454 22.7924 7.23904C24.5746 7.59354 26.2116 8.46857 27.4965 9.75346C28.7814 11.0384 29.6564 12.6754 30.011 14.4576C30.3655 16.2398 30.1835 18.0871 29.4881 19.7659C28.7927 21.4447 27.6152 22.8796 26.1043 23.8891C24.5934 24.8987 22.8171 25.4375 21 25.4375C18.5641 25.4349 16.2287 24.4661 14.5063 22.7437C12.7839 21.0212 11.8151 18.6859 11.8125 16.25Z" fill="white"/>
</svg>
